<?xml version="1.0" standalone="no"?>
<!DOCTYPE svg PUBLIC "-//W3C//DTD SVG 20010904//EN"
 "http://www.w3.org/TR/2001/REC-SVG-20010904/DTD/svg10.dtd">
<svg version="1.0" xmlns="http://www.w3.org/2000/svg"
 width="700.000000pt" height="700.000000pt" viewBox="0 0 700.000000 700.000000"
 preserveAspectRatio="xMidYMid meet">
<metadata>
Created by potrace 1.14, written by Peter Selinger 2001-2017
</metadata>
<g transform="translate(0.000000,700.000000) scale(0.100000,-0.100000)"
fill="#000000" stroke="none">
<path d="M0 3500 l0 -3500 3180 0 c3569 0 3258 -7 3430 77 79 38 109 60 181
132 72 72 94 102 132 181 84 173 78 -105 75 3145 l-3 2890 -23 70 c-72 212
-216 371 -410 454 -128 54 51 51 -3383 51 l-3179 0 0 -3500z m3721 2774 c488
-92 867 -509 920 -1012 14 -138 6 -1339 -10 -1462 -34 -255 -81 -469 -149
-670 -278 -819 -878 -1493 -1661 -1863 -102 -48 -325 -137 -344 -137 -5 0 -81
41 -168 92 l-158 92 113 32 c310 89 581 217 851 402 148 101 238 175 379 312
461 447 757 1020 851 1649 30 199 36 400 33 991 -4 561 -5 588 -25 662 -26 91
-78 208 -124 275 -47 70 -154 178 -226 229 -241 173 -587 208 -856 86 -248
-113 -429 -329 -499 -594 -21 -80 -22 -109 -28 -743 -8 -719 -6 -702 -69 -875
-60 -163 -146 -294 -283 -426 -94 -91 -169 -145 -284 -203 -171 -85 -297 -114
-504 -115 -171 -1 -248 12 -398 66 l-82 30 0 149 c0 82 3 149 6 149 3 0 42
-18 88 -40 135 -65 217 -83 386 -83 129 0 155 3 233 26 298 91 519 311 608
608 22 72 23 88 29 729 5 568 9 666 24 738 86 413 378 742 775 872 75 24 132
36 266 54 50 7 224 -4 306 -20z m-1727 -753 c-40 -162 -44 -240 -44 -844 0
-645 -2 -666 -66 -774 -99 -163 -242 -240 -436 -231 -79 3 -103 9 -161 36 -38
17 -87 46 -110 64 -59 47 -122 138 -149 215 -23 68 -23 71 -23 558 l0 490 125
72 c69 40 128 73 132 73 4 0 9 -246 10 -547 l3 -548 23 -43 c34 -64 100 -102
174 -102 90 0 158 44 194 125 5 11 12 310 15 665 4 355 10 659 14 676 6 27 26
42 163 121 87 50 158 90 158 90 1 -1 -9 -44 -22 -96z m3180 -12 c96 -56 126
-78 131 -98 4 -14 9 -191 12 -393 6 -421 6 -420 -73 -459 -52 -25 -97 -21
-139 13 -52 41 -55 61 -55 395 0 220 -4 336 -15 406 -14 91 -36 193 -52 234
-6 15 -2 14 30 -5 20 -11 93 -54 161 -93z m-1535 45 c205 -93 261 -357 112
-527 -18 -20 -49 -46 -69 -58 -20 -13 -38 -23 -40 -25 -2 -1 30 -123 72 -270
41 -148 78 -281 81 -296 l7 -28 -301 0 c-234 0 -301 3 -301 13 0 6 36 138 80
292 44 154 80 282 80 285 0 3 -16 14 -36 25 -49 26 -102 87 -132 154 -21 45
-26 71 -26 131 0 246 249 407 473 304z m2231 -447 l125 -72 3 -705 c2 -388 0
-724 -3 -747 -8 -54 -45 -99 -95 -114 -54 -16 -121 9 -150 55 -20 33 -20 46
-20 845 0 446 3 811 8 811 4 0 63 -33 132 -73z m-613 -857 c58 -35 60 -47 65
-365 5 -318 13 -369 78 -511 101 -223 316 -413 544 -479 l58 -17 -6 -102 c-9
-137 -15 -166 -33 -166 -33 0 -232 73 -303 111 -155 84 -318 232 -410 372 -24
37 -47 67 -50 67 -3 0 -20 -53 -38 -118 -69 -242 -222 -597 -358 -829 -358
-612 -864 -1105 -1491 -1453 l-104 -57 -135 77 c-75 43 -138 80 -141 83 -2 3
66 42 154 86 480 243 881 574 1216 1003 452 579 718 1307 743 2033 6 184 19
233 67 264 41 26 102 27 144 1z m-1756 -240 c119 -23 242 -106 308 -208 51
-80 72 -155 73 -254 0 -76 -6 -103 -42 -210 -52 -156 -188 -433 -275 -563
-425 -634 -1092 -1041 -1835 -1120 -110 -11 -128 -11 -150 3 -32 19 -250 236
-250 248 0 5 45 7 102 5 57 -1 159 2 228 8 848 79 1584 628 1890 1412 84 214
85 273 6 354 -112 117 -290 69 -340 -90 -32 -104 -111 -279 -166 -371 -274
-458 -700 -761 -1230 -875 -188 -41 -689 -28 -735 18 -15 14 -65 214 -65 256
0 31 -1 31 70 12 172 -47 451 -60 631 -29 343 59 630 212 875 466 160 167 274
353 350 573 21 59 55 135 77 167 103 155 292 233 478 198z m2046 -1684 c54
-24 145 -58 203 -77 58 -18 106 -33 108 -35 5 -3 -48 -104 -90 -171 -22 -35
-47 -63 -55 -63 -9 0 -63 16 -120 36 -57 20 -105 34 -107 32 -1 -1 -32 -57
-70 -123 -37 -66 -117 -195 -178 -286 l-111 -166 -300 -174 c-166 -96 -328
-189 -362 -208 l-60 -34 105 109 c319 332 578 692 769 1072 41 81 61 105 101
121 43 17 67 12 167 -33z"/>
</g>
</svg>
